<svg width="32" height="32" viewBox="0 0 32 32" fill="none" xmlns="http://www.w3.org/2000/svg">
    <path fill-rule="evenodd" clip-rule="evenodd"
        d="M24.4516 16.2258C24.4516 17.861 24.4338 18.9927 24.3981 19.6211C24.3267 21.1063 23.8839 22.2559 23.0699 23.0699C22.2559 23.8839 21.1063 24.3267 19.6211 24.3981C18.9927 24.4338 17.861 24.4516 16.2258 24.4516C14.5906 24.4516 13.4589 24.4338 12.8305 24.3981C11.3453 24.3267 10.1957 23.8839 9.38168 23.0699C8.56767 22.2559 8.12496 21.1063 8.05355 19.6211C8.01785 18.9927 8 17.861 8 16.2258C8 14.5906 8.01785 13.4589 8.05355 12.8305C8.12496 11.3453 8.56767 10.1957 9.38168 9.38168C10.1957 8.56767 11.3453 8.12496 12.8305 8.05355C13.4589 8.01785 14.5906 8 16.2258 8C17.861 8 18.9927 8.01785 19.6211 8.05355C21.1063 8.12496 22.2559 8.56767 23.0699 9.38168C23.8839 10.1957 24.3267 11.3453 24.3981 12.8305C24.4338 13.4589 24.4516 14.5906 24.4516 16.2258ZM16.2258 9.47807C16.1758 9.47807 15.9027 9.47629 15.4064 9.47272C14.9102 9.46915 14.5335 9.46915 14.2765 9.47272C14.0194 9.47629 13.6749 9.487 13.2429 9.50485C12.8109 9.52271 12.4431 9.5584 12.1397 9.61196C11.8362 9.66551 11.5809 9.73156 11.3739 9.81011C11.0168 9.95291 10.7027 10.16 10.4313 10.4313C10.16 10.7027 9.95291 11.0168 9.81011 11.3739C9.73156 11.5809 9.66551 11.8362 9.61196 12.1397C9.5584 12.4431 9.52271 12.8109 9.50485 13.2429C9.487 13.6749 9.47629 14.0194 9.47272 14.2765C9.46915 14.5335 9.46915 14.9102 9.47272 15.4064C9.47629 15.9027 9.47807 16.1758 9.47807 16.2258C9.47807 16.2758 9.47629 16.5489 9.47272 17.0452C9.46915 17.5414 9.46915 17.9181 9.47272 18.1752C9.47629 18.4322 9.487 18.7767 9.50485 19.2087C9.52271 19.6407 9.5584 20.0085 9.61196 20.3119C9.66551 20.6154 9.73156 20.8707 9.81011 21.0777C9.95291 21.4348 10.16 21.7489 10.4313 22.0203C10.7027 22.2916 11.0168 22.4987 11.3739 22.6415C11.5809 22.72 11.8362 22.7861 12.1397 22.8397C12.4431 22.8932 12.8109 22.9289 13.2429 22.9468C13.6749 22.9646 14.0194 22.9753 14.2765 22.9789C14.5335 22.9825 14.9102 22.9825 15.4064 22.9789C15.9027 22.9753 16.1758 22.9735 16.2258 22.9735C16.2758 22.9735 16.5489 22.9753 17.0452 22.9789C17.5414 22.9825 17.9181 22.9825 18.1752 22.9789C18.4322 22.9753 18.7767 22.9646 19.2087 22.9468C19.6407 22.9289 20.0085 22.8932 20.3119 22.8397C20.6154 22.7861 20.8707 22.72 21.0777 22.6415C21.4348 22.4987 21.749 22.2916 22.0203 22.0203C22.2916 21.7489 22.4987 21.4348 22.6415 21.0777C22.72 20.8707 22.7861 20.6154 22.8397 20.3119C22.8932 20.0085 22.9289 19.6407 22.9468 19.2087C22.9646 18.7767 22.9753 18.4322 22.9789 18.1752C22.9825 17.9181 22.9825 17.5414 22.9789 17.0452C22.9753 16.5489 22.9735 16.2758 22.9735 16.2258C22.9735 16.1758 22.9753 15.9027 22.9789 15.4064C22.9825 14.9102 22.9825 14.5335 22.9789 14.2765C22.9753 14.0194 22.9646 13.6749 22.9468 13.2429C22.9289 12.8109 22.8932 12.4431 22.8397 12.1397C22.7861 11.8362 22.72 11.5809 22.6415 11.3739C22.4987 11.0168 22.2916 10.7027 22.0203 10.4313C21.749 10.16 21.4348 9.95291 21.0777 9.81011C20.8707 9.73156 20.6154 9.66551 20.3119 9.61196C20.0085 9.5584 19.6407 9.52271 19.2087 9.50485C18.7767 9.487 18.4322 9.47629 18.1752 9.47272C17.9181 9.46915 17.5414 9.46915 17.0452 9.47272C16.5489 9.47629 16.2758 9.47807 16.2258 9.47807ZM21.6026 11.8344C21.6026 12.1058 21.5062 12.3378 21.3134 12.5306C21.1206 12.7234 20.8885 12.8198 20.6172 12.8198C20.3459 12.8198 20.1138 12.7234 19.921 12.5306C19.7282 12.3378 19.6318 12.1058 19.6318 11.8344C19.6318 11.5631 19.7282 11.331 19.921 11.1382C20.1138 10.9454 20.3459 10.849 20.6172 10.849C20.8885 10.849 21.1206 10.9454 21.3134 11.1382C21.5062 11.331 21.6026 11.5631 21.6026 11.8344ZM20.4458 16.2258C20.4458 17.3968 20.0352 18.3929 19.2141 19.2141C18.3929 20.0352 17.3968 20.4458 16.2258 20.4458C15.0548 20.4458 14.0587 20.0352 13.2375 19.2141C12.4164 18.3929 12.0058 17.3968 12.0058 16.2258C12.0058 15.0548 12.4164 14.0587 13.2375 13.2375C14.0587 12.4164 15.0548 12.0058 16.2258 12.0058C17.3968 12.0058 18.3929 12.4164 19.2141 13.2375C20.0352 14.0587 20.4458 15.0548 20.4458 16.2258ZM18.9677 16.2258C18.9677 15.4689 18.7 14.8227 18.1644 14.2872C17.6289 13.7516 16.9827 13.4839 16.2258 13.4839C15.4689 13.4839 14.8227 13.7516 14.2872 14.2872C13.7516 14.8227 13.4839 15.4689 13.4839 16.2258C13.4839 16.9827 13.7516 17.6289 14.2872 18.1644C14.8227 18.7 15.4689 18.9677 16.2258 18.9677C16.9827 18.9677 17.6289 18.7 18.1644 18.1644C18.7 17.6289 18.9677 16.9827 18.9677 16.2258Z"
        fill="white" />
    <circle cx="16" cy="16" r="15.5" stroke="white" />
</svg>