<svg width="184" height="74" viewBox="0 0 184 74" fill="none" xmlns="http://www.w3.org/2000/svg">
<path d="M51.6249 27.4898C52.9167 26.8236 54.3506 26.4888 55.8003 26.5148C57.5441 26.493 59.259 26.966 60.7506 27.8804C62.2533 28.8185 63.4681 30.1618 64.2587 31.7597C65.1517 33.5675 65.5968 35.5681 65.5557 37.5889C65.5961 39.623 65.1533 41.6372 64.2645 43.4621C63.4761 45.0823 62.2624 46.4518 60.7564 47.4207C59.2715 48.3598 57.5512 48.847 55.8003 48.8244C54.3521 48.8551 52.9186 48.5264 51.6249 47.867C50.4883 47.2806 49.5042 46.4315 48.7522 45.3885V48.469H43.358V19.6108H48.7522V30.0241C49.4848 28.9491 50.4726 28.0777 51.6249 27.4898ZM59.2533 34.2176C58.7723 33.3143 58.0518 32.5648 57.1728 32.0533C56.322 31.5621 55.3581 31.3068 54.3785 31.3133C53.4097 31.3108 52.4582 31.5736 51.6249 32.0739C50.7435 32.5993 50.0234 33.3617 49.5444 34.2763C49.0235 35.3298 48.7523 36.4916 48.7523 37.6696C48.7523 38.8476 49.0235 40.0094 49.5444 41.0629C50.0234 41.9775 50.7435 42.7399 51.6249 43.2653C52.4661 43.7664 53.4251 44.0291 54.4012 44.026C55.3773 44.0229 56.3347 43.7541 57.1728 43.2477C58.0512 42.7095 58.7699 41.9415 59.2533 41.0247C59.8041 39.9671 60.0769 38.7839 60.0455 37.5889C60.0756 36.4145 59.8025 35.2525 59.2533 34.2176Z" fill="white"/>
<path d="M71.6695 47.4382C70.0381 46.5296 68.6948 45.1712 67.7957 43.5208C66.832 41.7268 66.3469 39.7096 66.3884 37.6681C66.3493 35.6223 66.8502 33.6029 67.8393 31.8183C68.7671 30.1642 70.1342 28.8061 71.7855 27.8979C73.511 26.9891 75.4275 26.5146 77.3727 26.5146C79.3178 26.5146 81.2343 26.9891 82.9598 27.8979C84.6133 28.8052 85.9824 30.1634 86.9119 31.8183C87.901 33.6029 88.4018 35.6223 88.3627 37.6681C88.4032 39.7195 87.8895 41.7431 86.877 43.5208C85.9234 45.1753 84.5367 46.5309 82.8699 47.4382C81.1338 48.3763 79.191 48.8532 77.2232 48.8243C75.2847 48.8557 73.3713 48.3782 71.6695 47.4382ZM79.974 43.3446C80.854 42.8411 81.5699 42.089 82.0342 41.1803C82.5802 40.09 82.8456 38.878 82.806 37.6563C82.806 35.6026 82.2731 34.0237 81.2072 32.9195C80.7045 32.3837 80.0972 31.9595 79.4238 31.6739C78.7505 31.3882 78.0258 31.2474 77.2958 31.2604C76.571 31.2449 75.8512 31.3848 75.1836 31.6707C74.516 31.9567 73.9157 32.3822 73.4221 32.9195C72.3833 34.0237 71.8629 35.6026 71.861 37.6563C71.859 39.71 72.3668 41.2899 73.3843 42.396C73.8679 42.9351 74.4606 43.3624 75.1221 43.6487C75.7835 43.9351 76.4982 44.0737 77.2174 44.0552C78.1814 44.062 79.1307 43.8172 79.974 43.3446Z" fill="white"/>
<path d="M95.6429 31.3513V41.8028C95.6429 42.5311 95.817 43.0597 96.1623 43.3827C96.5076 43.7057 97.0937 43.8702 97.9033 43.8702H100.41V48.4719H97.0299C92.484 48.4719 90.21 46.2361 90.2081 41.7646V31.3513H87.6663V26.8642H90.2081V21.5225H95.6429V26.8642H100.422V31.3513H95.6429Z" fill="white"/>
<path d="M105.018 47.8668C103.719 47.2992 102.585 46.4057 101.722 45.2708C100.931 44.2234 100.468 42.9602 100.393 41.644H105.828C105.879 42.0527 106.013 42.4463 106.222 42.8C106.431 43.1537 106.71 43.46 107.041 43.6997C107.805 44.2643 108.735 44.5528 109.681 44.519C110.708 44.519 111.511 44.3105 112.09 43.8935C112.356 43.7233 112.576 43.4876 112.728 43.2082C112.88 42.9288 112.96 42.615 112.96 42.296C112.96 41.5941 112.606 41.0655 111.901 40.7161C110.813 40.2315 109.685 39.8463 108.529 39.5649C107.199 39.2567 105.892 38.8534 104.618 38.358C103.609 37.9409 102.713 37.2853 102.006 36.4462C101.275 35.5858 100.909 34.4317 100.909 32.9751C100.902 31.8014 101.26 30.655 101.931 29.6979C102.673 28.6558 103.687 27.8425 104.859 27.3486C106.28 26.7483 107.81 26.4562 109.35 26.4911C111.892 26.4911 113.923 27.1342 115.444 28.4204C116.964 29.7067 117.799 31.4422 117.948 33.6271H112.766C112.742 33.228 112.635 32.8386 112.452 32.4844C112.269 32.1301 112.014 31.819 111.704 31.5714C110.973 31.0441 110.087 30.7842 109.191 30.8343C108.224 30.8343 107.472 31.0164 106.936 31.3805C106.686 31.5436 106.482 31.7694 106.344 32.036C106.205 32.3025 106.138 32.6008 106.147 32.9017C106.147 33.63 106.507 34.1831 107.226 34.5609C108.301 35.063 109.425 35.4479 110.581 35.7091C111.878 36.0225 113.152 36.4267 114.393 36.919C115.406 37.3385 116.303 38.0018 117.005 38.8513C117.736 39.7206 118.115 40.8707 118.142 42.3019C118.157 43.5003 117.799 44.6732 117.121 45.6555C116.38 46.6931 115.364 47.4974 114.19 47.9754C112.78 48.5632 111.264 48.8491 109.739 48.8153C108.116 48.846 106.506 48.5225 105.018 47.8668Z" fill="white"/>
<path d="M128.083 27.5102C129.373 26.8301 130.811 26.4878 132.265 26.5147C134.009 26.4932 135.725 26.9662 137.218 27.8802C138.72 28.8185 139.933 30.1618 140.723 31.7595C141.614 33.5679 142.057 35.5684 142.014 37.5887C142.055 39.6228 141.612 41.637 140.723 43.4619C139.936 45.0819 138.723 46.4515 137.218 47.4205C135.733 48.3581 134.014 48.8453 132.265 48.8242C130.825 48.8541 129.4 48.5189 128.121 47.8492C126.99 47.251 126 46.4125 125.219 45.3913V58.7705H119.817V26.8641H125.211V29.9857C125.964 28.9451 126.948 28.0973 128.083 27.5102ZM135.715 34.2174C135.232 33.3146 134.51 32.5653 133.631 32.0531C132.78 31.5619 131.817 31.3066 130.837 31.3131C129.868 31.3106 128.917 31.5734 128.083 32.0737C127.202 32.5991 126.482 33.3615 126.003 34.2761C125.482 35.3296 125.211 36.4914 125.211 37.6694C125.211 38.8474 125.482 40.0092 126.003 41.0627C126.482 41.9773 127.202 42.7397 128.083 43.2652C128.925 43.7662 129.884 44.0289 130.86 44.0258C131.836 44.0227 132.793 43.7539 133.631 43.2475C134.51 42.7086 135.229 41.9409 135.715 41.0245C136.263 39.9661 136.535 38.7833 136.504 37.5887C136.533 36.4148 136.261 35.2533 135.715 34.2174Z" fill="white"/>
<path d="M148.128 47.4382C146.497 46.5296 145.153 45.1712 144.254 43.5208C143.292 41.7265 142.808 39.7093 142.85 37.6681C142.811 35.6223 143.312 33.6029 144.301 31.8183C145.228 30.1646 146.594 28.8066 148.244 27.8979C149.97 26.9891 151.886 26.5146 153.831 26.5146C155.776 26.5146 157.693 26.9891 159.418 27.8979C161.072 28.8052 162.441 30.1634 163.37 31.8183C164.36 33.6029 164.86 35.6223 164.821 37.6681C164.862 39.7195 164.348 41.7431 163.336 43.5208C162.382 45.1753 160.995 46.5309 159.328 47.4382C157.592 48.3763 155.65 48.8532 153.682 48.8243C151.743 48.8557 149.83 48.3782 148.128 47.4382ZM156.433 43.3446C157.313 42.8413 158.03 42.0892 158.496 41.1803C159.039 40.0892 159.304 38.8776 159.265 37.6563C159.265 35.6026 158.732 34.0237 157.666 32.9195C157.163 32.3834 156.556 31.959 155.883 31.6734C155.209 31.3877 154.484 31.2471 153.754 31.2604C153.03 31.2449 152.31 31.3848 151.642 31.6707C150.975 31.9567 150.374 32.3822 149.881 32.9195C148.842 34.0237 148.322 35.6026 148.32 37.6563C148.318 39.71 148.825 41.2899 149.843 42.396C150.327 42.9351 150.919 43.3624 151.581 43.6487C152.242 43.9351 152.957 44.0737 153.676 44.0552C154.64 44.062 155.589 43.8172 156.433 43.3446Z" fill="white"/>
<path d="M172.102 31.3513V41.8028C172.102 42.5311 172.276 43.0597 172.621 43.3827C172.966 43.7057 173.552 43.8702 174.362 43.8702H176.866V48.4719H173.489C168.941 48.4719 166.667 46.2361 166.667 41.7646V31.3513H164.125V26.8642H166.667V21.5225H172.102V26.8642H176.881V31.3513H172.102Z" fill="white"/>
<path d="M18.6213 52.6211C17.9085 52.6207 17.2083 52.4314 16.5902 52.072L7.98968 47.0474C7.37327 46.6849 6.86142 46.1652 6.50506 45.5403C6.14871 44.9153 5.96028 44.2068 5.95852 43.4853V22.9054C5.95604 22.1429 6.1642 21.3949 6.55951 20.7457C6.95482 20.0966 7.52153 19.5722 8.19569 19.2317L19.782 13.3291V24.3414L29.253 29.877C29.8704 30.2377 30.3831 30.7565 30.7396 31.3813C31.0961 32.006 31.2839 32.7147 31.2842 33.4362V43.4853C31.2845 44.2073 31.0969 44.9166 30.7403 45.5419C30.3838 46.1672 29.8708 46.6864 29.253 47.0474L20.6525 52.072C20.0344 52.4314 19.3342 52.6207 18.6213 52.6211ZM9.4405 45.1827L17.7508 50.0369C18.0155 50.1915 18.3157 50.273 18.6213 50.273C18.927 50.273 19.2272 50.1915 19.4918 50.0369L27.8022 45.1827L18.6213 39.8175L9.4405 45.1827ZM19.782 37.7824L28.9628 43.1476V33.4362C28.963 33.1267 28.8827 32.8226 28.7299 32.5545C28.5771 32.2865 28.3572 32.0639 28.0923 31.9091L19.782 27.0549V37.7824ZM17.4607 17.1379L9.24029 21.3255C8.95087 21.4724 8.70767 21.6981 8.538 21.9772C8.36834 22.2563 8.27894 22.5778 8.27984 22.9054V43.1681L17.4607 37.8029V17.1379Z" fill="white"/>
</svg>
