<svg width="158" height="54" viewBox="0 0 158 54" fill="none" xmlns="http://www.w3.org/2000/svg">
    <path
        d="M49.1904 20.0601C50.1442 19.5739 51.2028 19.3296 52.2732 19.3486C53.5606 19.3326 54.8268 19.6778 55.928 20.3451C57.0375 21.0297 57.9344 22.0099 58.5181 23.1759C59.1774 24.4952 59.5061 25.955 59.4758 27.4296C59.5056 28.914 59.1786 30.3838 58.5224 31.7155C57.9403 32.8979 57.0443 33.8972 55.9323 34.6042C54.836 35.2895 53.5659 35.6451 52.2732 35.6285C51.204 35.6509 50.1455 35.4111 49.1904 34.9299C48.3512 34.502 47.6247 33.8824 47.0694 33.1213V35.3692H43.0868V14.3105H47.0694V21.9094C47.6104 21.125 48.3397 20.489 49.1904 20.0601ZM54.8226 24.9695C54.4674 24.3104 53.9355 23.7635 53.2865 23.3902C52.6583 23.0317 51.9467 22.8454 51.2234 22.8502C50.5081 22.8484 49.8056 23.0401 49.1904 23.4052C48.5397 23.7886 48.008 24.345 47.6543 25.0124C47.2697 25.7811 47.0695 26.6289 47.0695 27.4886C47.0695 28.3482 47.2697 29.196 47.6543 29.9647C48.008 30.6322 48.5397 31.1885 49.1904 31.5719C49.8115 31.9376 50.5195 32.1293 51.2402 32.127C51.9609 32.1248 52.6677 31.9286 53.2865 31.5591C53.935 31.1663 54.4657 30.6059 54.8226 29.9369C55.2292 29.1651 55.4306 28.3017 55.4074 27.4296C55.4297 26.5727 55.2281 25.7247 54.8226 24.9695Z"
        fill="#3A3A3A" />
    <path
        d="M63.9897 34.6171C62.7852 33.954 61.7934 32.9627 61.1296 31.7584C60.4181 30.4493 60.0599 28.9773 60.0906 27.4875C60.0617 25.9946 60.4315 24.521 61.1618 23.2188C61.8468 22.0117 62.8561 21.0207 64.0754 20.3579C65.3493 19.6948 66.7643 19.3485 68.2004 19.3485C69.6366 19.3485 71.0516 19.6948 72.3255 20.3579C73.5463 21.02 74.5572 22.0111 75.2434 23.2188C75.9737 24.521 76.3434 25.9946 76.3146 27.4875C76.3445 28.9845 75.9652 30.4612 75.2177 31.7584C74.5136 32.9657 73.4898 33.955 72.2591 34.6171C70.9774 35.3016 69.5429 35.6496 68.0901 35.6285C66.6589 35.6515 65.2461 35.303 63.9897 34.6171ZM70.121 31.6298C70.7708 31.2624 71.2993 30.7136 71.6421 30.0505C72.0452 29.2548 72.2412 28.3704 72.212 27.4789C72.212 25.9803 71.8185 24.8281 71.0315 24.0224C70.6604 23.6313 70.212 23.3218 69.7148 23.1133C69.2177 22.9049 68.6826 22.8022 68.1437 22.8116C67.6086 22.8003 67.0771 22.9024 66.5842 23.111C66.0913 23.3197 65.6481 23.6303 65.2836 24.0224C64.5167 24.8281 64.1325 25.9803 64.1311 27.4789C64.1296 28.9776 64.5045 30.1305 65.2558 30.9376C65.6128 31.331 66.0504 31.6428 66.5388 31.8518C67.0272 32.0607 67.5548 32.1619 68.0858 32.1484C68.7975 32.1533 69.4985 31.9747 70.121 31.6298Z"
        fill="#3A3A3A" />
    <path
        d="M81.6897 22.878V30.5047C81.6897 31.0362 81.8183 31.4219 82.0732 31.6576C82.3281 31.8933 82.7609 32.0134 83.3586 32.0134H85.2096V35.3713H82.7138C79.3574 35.3713 77.6785 33.7399 77.6771 30.4769V22.878H75.8004V19.6036H77.6771V15.7056H81.6897V19.6036H85.2182V22.878H81.6897Z"
        fill="#3A3A3A" />
    <path
        d="M88.6116 34.93C87.6525 34.5158 86.8149 33.8638 86.1779 33.0356C85.5939 32.2713 85.2521 31.3495 85.1967 30.3891H89.2093C89.2473 30.6873 89.3465 30.9745 89.5006 31.2326C89.6547 31.4907 89.8604 31.7142 90.1048 31.8891C90.6694 32.3011 91.3559 32.5117 92.0544 32.487C92.8128 32.487 93.4055 32.3349 93.8325 32.0306C94.0294 31.9064 94.1916 31.7343 94.3039 31.5305C94.4163 31.3266 94.4753 31.0976 94.4752 30.8648C94.4752 30.3527 94.2138 29.9669 93.6933 29.7119C92.8901 29.3583 92.057 29.0772 91.2039 28.8719C90.2216 28.647 89.2566 28.3527 88.316 27.9911C87.5711 27.6868 86.91 27.2084 86.3879 26.5961C85.848 25.9682 85.5781 25.126 85.5781 24.0631C85.5728 23.2066 85.8366 22.3701 86.3322 21.6716C86.8803 20.9112 87.6286 20.3177 88.4938 19.9572C89.5434 19.5192 90.6731 19.3061 91.8101 19.3315C93.6868 19.3315 95.1865 19.8008 96.3091 20.7394C97.4316 21.678 98.0479 22.9445 98.1579 24.5389H94.3317C94.314 24.2477 94.235 23.9635 94.0999 23.705C93.9648 23.4465 93.7766 23.2194 93.5476 23.0388C93.0081 22.654 92.3538 22.4643 91.6923 22.5009C90.9782 22.5009 90.4233 22.6338 90.0277 22.8995C89.8431 23.0185 89.6924 23.1833 89.5902 23.3778C89.4881 23.5723 89.4381 23.7899 89.445 24.0095C89.445 24.541 89.7106 24.9446 90.2419 25.2203C91.0354 25.5867 91.8656 25.8675 92.7185 26.0582C93.6762 26.2868 94.6168 26.5819 95.5335 26.9411C96.2813 27.2472 96.9432 27.7312 97.4616 28.3511C98.0015 28.9855 98.2814 29.8248 98.3014 30.8691C98.312 31.7436 98.0483 32.5995 97.5473 33.3163C97.0002 34.0735 96.25 34.6604 95.3836 35.0093C94.3421 35.4382 93.2232 35.6468 92.0972 35.6221C90.8991 35.6446 89.7103 35.4085 88.6116 34.93Z"
        fill="#3A3A3A" />
    <path
        d="M105.641 20.0751C106.593 19.5788 107.655 19.329 108.728 19.3486C110.016 19.3329 111.283 19.6781 112.385 20.3451C113.494 21.0298 114.39 22.0101 114.973 23.1759C115.631 24.4955 115.958 25.9554 115.926 27.4296C115.956 28.914 115.629 30.3838 114.973 31.7155C114.392 32.8977 113.497 33.8971 112.385 34.6042C111.289 35.2884 110.02 35.6439 108.728 35.6285C107.665 35.6504 106.613 35.4058 105.669 34.9171C104.834 34.4805 104.103 33.8687 103.527 33.1234V42.8867H99.5376V19.6036H103.52V21.8816C104.077 21.1222 104.803 20.5035 105.641 20.0751ZM111.275 24.9695C110.919 24.3107 110.386 23.764 109.737 23.3902C109.109 23.0317 108.397 22.8454 107.674 22.8502C106.959 22.8484 106.256 23.0401 105.641 23.4052C104.99 23.7886 104.459 24.345 104.105 25.0124C103.72 25.7811 103.52 26.6289 103.52 27.4886C103.52 28.3482 103.72 29.196 104.105 29.9647C104.459 30.6322 104.99 31.1885 105.641 31.5719C106.262 31.9376 106.97 32.1293 107.691 32.127C108.412 32.1248 109.118 31.9286 109.737 31.5591C110.386 31.1658 110.917 30.6056 111.275 29.9369C111.68 29.1646 111.881 28.3014 111.858 27.4296C111.88 26.573 111.679 25.7254 111.275 24.9695Z"
        fill="#3A3A3A" />
    <path
        d="M120.44 34.6171C119.236 33.954 118.244 32.9627 117.58 31.7584C116.87 30.4491 116.512 28.9771 116.544 27.4875C116.515 25.9946 116.884 24.521 117.615 23.2188C118.299 22.012 119.308 21.021 120.526 20.3579C121.8 19.6948 123.215 19.3485 124.651 19.3485C126.087 19.3485 127.502 19.6948 128.776 20.3579C129.997 21.02 131.008 22.0111 131.694 23.2188C132.424 24.521 132.794 25.9946 132.765 27.4875C132.795 28.9845 132.416 30.4612 131.668 31.7584C130.964 32.9657 129.941 33.955 128.71 34.6171C127.428 35.3016 125.994 35.6496 124.541 35.6285C123.11 35.6515 121.697 35.303 120.44 34.6171ZM126.572 31.6298C127.222 31.2626 127.751 30.7138 128.095 30.0505C128.496 29.2543 128.692 28.3701 128.663 27.4789C128.663 25.9803 128.269 24.8281 127.482 24.0224C127.111 23.6311 126.663 23.3214 126.166 23.113C125.669 22.9045 125.133 22.8019 124.594 22.8116C124.059 22.8003 123.528 22.9024 123.035 23.111C122.542 23.3197 122.099 23.6303 121.734 24.0224C120.967 24.8281 120.583 25.9803 120.582 27.4789C120.58 28.9776 120.955 30.1305 121.707 30.9376C122.064 31.331 122.501 31.6428 122.99 31.8518C123.478 32.0607 124.006 32.1619 124.537 32.1484C125.248 32.1533 125.949 31.9747 126.572 31.6298Z"
        fill="#3A3A3A" />
    <path
        d="M138.14 22.878V30.5047C138.14 31.0362 138.269 31.4219 138.524 31.6576C138.779 31.8933 139.212 32.0134 139.809 32.0134H141.658V35.3713H139.165C135.807 35.3713 134.128 33.7399 134.128 30.4769V22.878H132.251V19.6036H134.128V15.7056H138.14V19.6036H141.669V22.878H138.14Z"
        fill="#3A3A3A" />
    <path
        d="M24.8233 38.3994C24.2971 38.399 23.78 38.2609 23.3237 37.9986L16.9738 34.3321C16.5187 34.0675 16.1408 33.6883 15.8777 33.2323C15.6146 32.7762 15.4755 32.2592 15.4742 31.7327V16.7149C15.4723 16.1585 15.626 15.6126 15.9179 15.1389C16.2097 14.6652 16.6282 14.2826 17.1259 14.0341L25.6803 9.72681V17.7628L32.6729 21.8023C33.1287 22.0655 33.5072 22.4441 33.7705 22.9C34.0337 23.3559 34.1724 23.8731 34.1725 24.3995V31.7327C34.1727 32.2595 34.0343 32.7771 33.771 33.2334C33.5078 33.6897 33.129 34.0687 32.6729 34.3321L26.323 37.9986C25.8666 38.2609 25.3496 38.399 24.8233 38.3994ZM18.045 32.9713L24.1806 36.5136C24.376 36.6264 24.5977 36.6858 24.8233 36.6858C25.049 36.6858 25.2706 36.6264 25.466 36.5136L31.6017 32.9713L24.8233 29.0561L18.045 32.9713ZM25.6803 27.5711L32.4587 31.4862V24.3995C32.4588 24.1737 32.3995 23.9518 32.2866 23.7562C32.1738 23.5606 32.0115 23.3981 31.8159 23.2852L25.6803 19.7429V27.5711ZM23.9664 12.5062L17.8971 15.562C17.6835 15.6692 17.5039 15.8339 17.3786 16.0376C17.2534 16.2413 17.1874 16.4758 17.188 16.7149V31.5012L23.9664 27.5861V12.5062Z"
        fill="#3A3A3A" />
</svg>