<svg width="32" height="32" viewBox="0 0 32 32" fill="none" xmlns="http://www.w3.org/2000/svg">
<circle cx="16" cy="16" r="15.5" fill="white" stroke="white"/>
<path d="M23.3833 16.3925V22.5008H21.0917V17.5258C21.0917 16.5922 20.8115 15.8528 20.3341 15.3473C19.8573 14.8426 19.2188 14.6099 18.5864 14.6324C17.3036 14.6781 16.1167 15.752 16.1167 17.5258V22.5008H13.8333V13.0675H16.138L16.1168 13.9556L17.0552 14.2077C17.3311 13.704 17.8517 13.2851 18.5183 13.0236C19.1822 12.7631 19.9554 12.674 20.685 12.7979C21.4117 12.9214 22.0784 13.2522 22.5636 13.8156C23.046 14.3759 23.3833 15.206 23.3833 16.3925ZM10.8333 9.66725C10.8332 9.97667 10.7101 10.2734 10.4912 10.492C10.2723 10.7107 9.9755 10.8335 9.66608 10.8333C9.35666 10.8332 9.05998 10.7101 8.8413 10.4912C8.62261 10.2723 8.49985 9.9755 8.5 9.66608C8.50015 9.35666 8.62322 9.05998 8.84212 8.8413C9.06102 8.62261 9.35783 8.49985 9.66725 8.5C9.97667 8.50015 10.2734 8.62322 10.492 8.84212C10.7107 9.06102 10.8335 9.35783 10.8333 9.66725ZM8.55 22.5008V13.0675H10.8833V22.5008H8.55Z" fill="#3A3A3A" stroke="#3A3A3A"/>
</svg>
